<mxfile host="app.diagrams.net" modified="2024-04-10T05:41:35.896Z" agent="Mozilla/5.0 (X11; Ubuntu; Linux x86_64; rv:124.0) Gecko/20100101 Firefox/124.0" etag="gmPX5UNaPssBpHu5VFiP" version="24.2.3" type="github">
  <diagram id="C5RBs43oDa-KdzZeNtuy" name="Page-1">
    <mxGraphModel dx="1107" dy="595" grid="1" gridSize="10" guides="1" tooltips="1" connect="1" arrows="1" fold="1" page="1" pageScale="1" pageWidth="827" pageHeight="1169" math="0" shadow="0">
      <root>
        <mxCell id="WIyWlLk6GJQsqaUBKTNV-0" />
        <mxCell id="WIyWlLk6GJQsqaUBKTNV-1" parent="WIyWlLk6GJQsqaUBKTNV-0" />
        <mxCell id="WIyWlLk6GJQsqaUBKTNV-2" value="" style="rounded=0;html=1;jettySize=auto;orthogonalLoop=1;fontSize=11;endArrow=block;endFill=0;endSize=8;strokeWidth=1;shadow=0;labelBackgroundColor=none;edgeStyle=orthogonalEdgeStyle;" parent="WIyWlLk6GJQsqaUBKTNV-1" source="WIyWlLk6GJQsqaUBKTNV-3" edge="1">
          <mxGeometry relative="1" as="geometry">
            <mxPoint x="160" y="590" as="targetPoint" />
          </mxGeometry>
        </mxCell>
        <mxCell id="WIyWlLk6GJQsqaUBKTNV-3" value="프로그램 실행" style="rounded=1;whiteSpace=wrap;html=1;fontSize=12;glass=0;strokeWidth=1;shadow=0;" parent="WIyWlLk6GJQsqaUBKTNV-1" vertex="1">
          <mxGeometry x="10" y="570" width="120" height="40" as="geometry" />
        </mxCell>
        <mxCell id="WIyWlLk6GJQsqaUBKTNV-5" value="" style="edgeStyle=orthogonalEdgeStyle;rounded=0;html=1;jettySize=auto;orthogonalLoop=1;fontSize=11;endArrow=block;endFill=0;endSize=8;strokeWidth=1;shadow=0;labelBackgroundColor=none;entryX=0;entryY=0.5;entryDx=0;entryDy=0;" parent="WIyWlLk6GJQsqaUBKTNV-1" edge="1">
          <mxGeometry y="10" relative="1" as="geometry">
            <mxPoint as="offset" />
            <mxPoint x="200" y="560" as="sourcePoint" />
            <mxPoint x="280" y="110" as="targetPoint" />
            <Array as="points">
              <mxPoint x="200" y="110" />
            </Array>
          </mxGeometry>
        </mxCell>
        <mxCell id="WIyWlLk6GJQsqaUBKTNV-7" value="인터페이스 실험" style="rounded=0;whiteSpace=wrap;html=1;fontSize=12;glass=0;strokeWidth=1;shadow=0;" parent="WIyWlLk6GJQsqaUBKTNV-1" vertex="1">
          <mxGeometry x="280" y="90" width="120" height="40" as="geometry" />
        </mxCell>
        <mxCell id="vzKUUmcyO4X9Xhw-Ob6t-4" value="" style="rounded=0;html=1;jettySize=auto;orthogonalLoop=1;fontSize=11;endArrow=block;endFill=0;endSize=8;strokeWidth=1;shadow=0;labelBackgroundColor=none;edgeStyle=orthogonalEdgeStyle;exitX=0.5;exitY=1;exitDx=0;exitDy=0;" edge="1" parent="WIyWlLk6GJQsqaUBKTNV-1" source="vzKUUmcyO4X9Xhw-Ob6t-32" target="vzKUUmcyO4X9Xhw-Ob6t-3">
          <mxGeometry y="20" relative="1" as="geometry">
            <mxPoint as="offset" />
            <mxPoint x="199.99999999999977" y="629.9999999999998" as="sourcePoint" />
            <mxPoint x="130" y="190" as="targetPoint" />
            <Array as="points">
              <mxPoint x="200" y="1070" />
            </Array>
          </mxGeometry>
        </mxCell>
        <mxCell id="vzKUUmcyO4X9Xhw-Ob6t-3" value="파동 실험" style="rounded=0;whiteSpace=wrap;html=1;fontSize=12;glass=0;strokeWidth=1;shadow=0;" vertex="1" parent="WIyWlLk6GJQsqaUBKTNV-1">
          <mxGeometry x="280" y="1050" width="120" height="40" as="geometry" />
        </mxCell>
        <mxCell id="vzKUUmcyO4X9Xhw-Ob6t-5" value="포물체 운동 실험" style="rounded=0;whiteSpace=wrap;html=1;fontSize=12;glass=0;strokeWidth=1;shadow=0;" vertex="1" parent="WIyWlLk6GJQsqaUBKTNV-1">
          <mxGeometry x="280" y="330" width="120" height="40" as="geometry" />
        </mxCell>
        <mxCell id="vzKUUmcyO4X9Xhw-Ob6t-6" value="&lt;div&gt;관성모멘트와 각운동량&lt;/div&gt;&lt;div&gt;보존 실험&lt;br&gt;&lt;/div&gt;" style="rounded=0;whiteSpace=wrap;html=1;fontSize=12;glass=0;strokeWidth=1;shadow=0;" vertex="1" parent="WIyWlLk6GJQsqaUBKTNV-1">
          <mxGeometry x="280" y="810" width="120" height="40" as="geometry" />
        </mxCell>
        <mxCell id="vzKUUmcyO4X9Xhw-Ob6t-7" value="&lt;div&gt;에어트랙 중력가속도&lt;/div&gt;&lt;div&gt;실험&lt;/div&gt;" style="rounded=0;whiteSpace=wrap;html=1;fontSize=12;glass=0;strokeWidth=1;shadow=0;" vertex="1" parent="WIyWlLk6GJQsqaUBKTNV-1">
          <mxGeometry x="280" y="210" width="120" height="40" as="geometry" />
        </mxCell>
        <mxCell id="vzKUUmcyO4X9Xhw-Ob6t-8" value="&lt;div&gt;탄성 및 비탄성충돌&lt;/div&gt;&lt;div&gt;실험&lt;br&gt;&lt;/div&gt;" style="rounded=0;whiteSpace=wrap;html=1;fontSize=12;glass=0;strokeWidth=1;shadow=0;" vertex="1" parent="WIyWlLk6GJQsqaUBKTNV-1">
          <mxGeometry x="280" y="690" width="120" height="40" as="geometry" />
        </mxCell>
        <mxCell id="vzKUUmcyO4X9Xhw-Ob6t-9" value="운동량 보존 실험" style="rounded=0;whiteSpace=wrap;html=1;fontSize=12;glass=0;strokeWidth=1;shadow=0;" vertex="1" parent="WIyWlLk6GJQsqaUBKTNV-1">
          <mxGeometry x="280" y="570" width="120" height="40" as="geometry" />
        </mxCell>
        <mxCell id="vzKUUmcyO4X9Xhw-Ob6t-10" value="단진자 운동 실험" style="rounded=0;whiteSpace=wrap;html=1;fontSize=12;glass=0;strokeWidth=1;shadow=0;" vertex="1" parent="WIyWlLk6GJQsqaUBKTNV-1">
          <mxGeometry x="280" y="930" width="120" height="40" as="geometry" />
        </mxCell>
        <mxCell id="vzKUUmcyO4X9Xhw-Ob6t-11" value="&lt;div&gt;역학적 에너지 보존&lt;/div&gt;&lt;div&gt;실험&lt;/div&gt;" style="rounded=0;whiteSpace=wrap;html=1;fontSize=12;glass=0;strokeWidth=1;shadow=0;" vertex="1" parent="WIyWlLk6GJQsqaUBKTNV-1">
          <mxGeometry x="280" y="450" width="120" height="40" as="geometry" />
        </mxCell>
        <mxCell id="vzKUUmcyO4X9Xhw-Ob6t-16" value="" style="endArrow=classic;html=1;rounded=0;entryX=0;entryY=0.5;entryDx=0;entryDy=0;" edge="1" parent="WIyWlLk6GJQsqaUBKTNV-1" target="vzKUUmcyO4X9Xhw-Ob6t-7">
          <mxGeometry width="50" height="50" relative="1" as="geometry">
            <mxPoint x="200" y="230" as="sourcePoint" />
            <mxPoint x="440" y="620" as="targetPoint" />
          </mxGeometry>
        </mxCell>
        <mxCell id="vzKUUmcyO4X9Xhw-Ob6t-18" value="2 입력" style="edgeLabel;html=1;align=center;verticalAlign=middle;resizable=0;points=[];" vertex="1" connectable="0" parent="vzKUUmcyO4X9Xhw-Ob6t-16">
          <mxGeometry x="0.3748" y="1" relative="1" as="geometry">
            <mxPoint x="-15" y="-9" as="offset" />
          </mxGeometry>
        </mxCell>
        <mxCell id="vzKUUmcyO4X9Xhw-Ob6t-24" value="1 입력" style="edgeLabel;html=1;align=center;verticalAlign=middle;resizable=0;points=[];" vertex="1" connectable="0" parent="vzKUUmcyO4X9Xhw-Ob6t-16">
          <mxGeometry x="0.3748" y="1" relative="1" as="geometry">
            <mxPoint x="-15" y="-129" as="offset" />
          </mxGeometry>
        </mxCell>
        <mxCell id="vzKUUmcyO4X9Xhw-Ob6t-26" value="4 입력" style="edgeLabel;html=1;align=center;verticalAlign=middle;resizable=0;points=[];" vertex="1" connectable="0" parent="vzKUUmcyO4X9Xhw-Ob6t-16">
          <mxGeometry x="0.3748" y="1" relative="1" as="geometry">
            <mxPoint x="-15" y="225" as="offset" />
          </mxGeometry>
        </mxCell>
        <mxCell id="vzKUUmcyO4X9Xhw-Ob6t-27" value="5 입력" style="edgeLabel;html=1;align=center;verticalAlign=middle;resizable=0;points=[];" vertex="1" connectable="0" parent="vzKUUmcyO4X9Xhw-Ob6t-16">
          <mxGeometry x="0.3748" y="1" relative="1" as="geometry">
            <mxPoint x="5" y="353" as="offset" />
          </mxGeometry>
        </mxCell>
        <mxCell id="vzKUUmcyO4X9Xhw-Ob6t-28" value="6 입력" style="edgeLabel;html=1;align=center;verticalAlign=middle;resizable=0;points=[];" vertex="1" connectable="0" parent="vzKUUmcyO4X9Xhw-Ob6t-16">
          <mxGeometry x="0.3748" y="1" relative="1" as="geometry">
            <mxPoint x="-15" y="471" as="offset" />
          </mxGeometry>
        </mxCell>
        <mxCell id="vzKUUmcyO4X9Xhw-Ob6t-29" value="7 입력" style="edgeLabel;html=1;align=center;verticalAlign=middle;resizable=0;points=[];" vertex="1" connectable="0" parent="vzKUUmcyO4X9Xhw-Ob6t-16">
          <mxGeometry x="0.3748" y="1" relative="1" as="geometry">
            <mxPoint x="-15" y="591" as="offset" />
          </mxGeometry>
        </mxCell>
        <mxCell id="vzKUUmcyO4X9Xhw-Ob6t-30" value="8 입력" style="edgeLabel;html=1;align=center;verticalAlign=middle;resizable=0;points=[];" vertex="1" connectable="0" parent="vzKUUmcyO4X9Xhw-Ob6t-16">
          <mxGeometry x="0.3748" y="1" relative="1" as="geometry">
            <mxPoint x="-15" y="711" as="offset" />
          </mxGeometry>
        </mxCell>
        <mxCell id="vzKUUmcyO4X9Xhw-Ob6t-31" value="9 입력" style="edgeLabel;html=1;align=center;verticalAlign=middle;resizable=0;points=[];" vertex="1" connectable="0" parent="vzKUUmcyO4X9Xhw-Ob6t-16">
          <mxGeometry x="0.3748" y="1" relative="1" as="geometry">
            <mxPoint x="-15" y="831" as="offset" />
          </mxGeometry>
        </mxCell>
        <mxCell id="vzKUUmcyO4X9Xhw-Ob6t-25" value="3 입력" style="edgeLabel;html=1;align=center;verticalAlign=middle;resizable=0;points=[];" vertex="1" connectable="0" parent="vzKUUmcyO4X9Xhw-Ob6t-16">
          <mxGeometry x="0.3748" y="1" relative="1" as="geometry">
            <mxPoint x="-15" y="105" as="offset" />
          </mxGeometry>
        </mxCell>
        <mxCell id="vzKUUmcyO4X9Xhw-Ob6t-38" value="10 입력" style="edgeLabel;html=1;align=center;verticalAlign=middle;resizable=0;points=[];" vertex="1" connectable="0" parent="vzKUUmcyO4X9Xhw-Ob6t-16">
          <mxGeometry x="0.3748" y="1" relative="1" as="geometry">
            <mxPoint x="-15" y="901" as="offset" />
          </mxGeometry>
        </mxCell>
        <mxCell id="vzKUUmcyO4X9Xhw-Ob6t-17" value="" style="endArrow=classic;html=1;rounded=0;entryX=0;entryY=0.5;entryDx=0;entryDy=0;" edge="1" parent="WIyWlLk6GJQsqaUBKTNV-1">
          <mxGeometry width="50" height="50" relative="1" as="geometry">
            <mxPoint x="200" y="342.5" as="sourcePoint" />
            <mxPoint x="280" y="343.5" as="targetPoint" />
          </mxGeometry>
        </mxCell>
        <mxCell id="vzKUUmcyO4X9Xhw-Ob6t-19" value="" style="endArrow=classic;html=1;rounded=0;entryX=0;entryY=0.5;entryDx=0;entryDy=0;exitX=1;exitY=0.5;exitDx=0;exitDy=0;" edge="1" parent="WIyWlLk6GJQsqaUBKTNV-1" target="vzKUUmcyO4X9Xhw-Ob6t-9">
          <mxGeometry width="50" height="50" relative="1" as="geometry">
            <mxPoint x="240" y="590" as="sourcePoint" />
            <mxPoint x="280" y="585" as="targetPoint" />
          </mxGeometry>
        </mxCell>
        <mxCell id="vzKUUmcyO4X9Xhw-Ob6t-20" value="" style="endArrow=classic;html=1;rounded=0;entryX=0;entryY=0.5;entryDx=0;entryDy=0;" edge="1" parent="WIyWlLk6GJQsqaUBKTNV-1">
          <mxGeometry width="50" height="50" relative="1" as="geometry">
            <mxPoint x="200" y="463.5" as="sourcePoint" />
            <mxPoint x="280" y="464.5" as="targetPoint" />
          </mxGeometry>
        </mxCell>
        <mxCell id="vzKUUmcyO4X9Xhw-Ob6t-21" value="" style="endArrow=classic;html=1;rounded=0;entryX=0;entryY=0.5;entryDx=0;entryDy=0;" edge="1" parent="WIyWlLk6GJQsqaUBKTNV-1">
          <mxGeometry width="50" height="50" relative="1" as="geometry">
            <mxPoint x="200" y="705.5" as="sourcePoint" />
            <mxPoint x="280" y="706.5" as="targetPoint" />
          </mxGeometry>
        </mxCell>
        <mxCell id="vzKUUmcyO4X9Xhw-Ob6t-22" value="" style="endArrow=classic;html=1;rounded=0;entryX=0;entryY=0.5;entryDx=0;entryDy=0;" edge="1" parent="WIyWlLk6GJQsqaUBKTNV-1">
          <mxGeometry width="50" height="50" relative="1" as="geometry">
            <mxPoint x="200" y="827.5" as="sourcePoint" />
            <mxPoint x="280" y="828.5" as="targetPoint" />
          </mxGeometry>
        </mxCell>
        <mxCell id="vzKUUmcyO4X9Xhw-Ob6t-23" value="" style="endArrow=classic;html=1;rounded=0;entryX=0;entryY=0.5;entryDx=0;entryDy=0;" edge="1" parent="WIyWlLk6GJQsqaUBKTNV-1">
          <mxGeometry width="50" height="50" relative="1" as="geometry">
            <mxPoint x="200" y="948.5" as="sourcePoint" />
            <mxPoint x="280" y="949.5" as="targetPoint" />
          </mxGeometry>
        </mxCell>
        <mxCell id="vzKUUmcyO4X9Xhw-Ob6t-32" value="1 ~ 10 입력" style="rounded=0;whiteSpace=wrap;html=1;" vertex="1" parent="WIyWlLk6GJQsqaUBKTNV-1">
          <mxGeometry x="160" y="560" width="80" height="60" as="geometry" />
        </mxCell>
        <mxCell id="vzKUUmcyO4X9Xhw-Ob6t-33" value="프로그램 종료" style="rounded=1;whiteSpace=wrap;html=1;fontSize=12;glass=0;strokeWidth=1;shadow=0;" vertex="1" parent="WIyWlLk6GJQsqaUBKTNV-1">
          <mxGeometry x="680" y="570" width="120" height="40" as="geometry" />
        </mxCell>
        <mxCell id="vzKUUmcyO4X9Xhw-Ob6t-34" value="" style="endArrow=classic;html=1;rounded=0;exitX=0.5;exitY=1;exitDx=0;exitDy=0;entryX=0.553;entryY=0.994;entryDx=0;entryDy=0;entryPerimeter=0;" edge="1" parent="WIyWlLk6GJQsqaUBKTNV-1" source="vzKUUmcyO4X9Xhw-Ob6t-32" target="vzKUUmcyO4X9Xhw-Ob6t-33">
          <mxGeometry width="50" height="50" relative="1" as="geometry">
            <mxPoint x="350" y="930" as="sourcePoint" />
            <mxPoint x="400" y="880" as="targetPoint" />
            <Array as="points">
              <mxPoint x="200" y="1140" />
              <mxPoint x="470" y="1140" />
              <mxPoint x="746" y="1140" />
            </Array>
          </mxGeometry>
        </mxCell>
      </root>
    </mxGraphModel>
  </diagram>
</mxfile>
